<?xml version="1.0" encoding="utf-8"?>
<!-- Generator: Adobe Illustrator 28.3.0, SVG Export Plug-In . SVG Version: 6.00 Build 0)  -->
<svg version="1.1" id="Layer_1" xmlns="http://www.w3.org/2000/svg" xmlns:xlink="http://www.w3.org/1999/xlink" x="0px" y="0px"
	 viewBox="0 0 395.2 377" style="enable-background:new 0 0 395.2 377;" xml:space="preserve">
<style type="text/css">
	.st0{fill:#8CBBE5;}
	.st1{fill:#8EBCE5;}
</style>
<path class="st0" d="M231.9,7c-30.2,0.2-48.7,9.8-76.7,21c-20.1,8-40,16.7-59.5,26.1C74.3,64.4,52.7,75.8,37.3,93.9
	C19.8,114.4,12,141.5,7.2,168.1c-7.2,39.3-8.3,82.2,11.9,116.8c13.8,23.7,36.3,41,59.8,55c20.3,12.1,42,22.2,64.8,28.2
	c41.4,10.9,86.4,7.8,125.9-8.7s73.4-46.3,94.7-83.4c34.6-60.1,35-135.2,15.3-201.7c-4.7-15.9-10.8-32-22-44.1
	C337.3,8.3,304.9,3.5,275,2.5C261.8,2,240.6,6.8,231.9,7"/>
<path class="st1" d="M231.9,4.5c-10.2,0.1-20.4,1.3-30.4,3.8c-9.3,2.3-18.3,5.6-27.1,9.2c-20.9,8.4-41.8,16.9-62.3,26.2
	C93,52.3,73.4,61.1,56.3,73.4c-8.1,5.8-15.6,12.4-21.9,20.1s-11.6,16.6-15.7,25.9C10.4,137.9,6,158,3,178s-4.2,40.9-1.5,61.2
	c2.7,19.9,9.3,39.2,21,55.6c11.5,16.1,26.8,28.9,43.2,39.8c17.9,11.9,37.2,22.1,57.4,29.6s41.6,11.9,63.3,12.7
	c41.4,1.5,83-10,117.5-33c32-21.3,57.6-51.7,72.8-87.1c15.9-37,20.8-78,17.6-117.9c-1.7-20.4-5.4-40.7-10.9-60.4
	c-5.4-19.2-12.3-39.2-27.2-53.2C342.8,12.6,325,6.2,307.2,3c-9.1-1.6-18.4-2.5-27.6-2.9s-17.5,0.4-26.3,1.6
	C246.2,2.7,239.1,4.3,231.9,4.5c-3.2,0.1-3.2,5.1,0,5c7.4-0.2,14.9-1.8,22.2-2.8c8.3-1.2,16.5-1.9,24.9-1.6
	c17.9,0.8,36.3,3,52.9,10.3c7.9,3.5,15.4,8.1,21.6,14.2c7.1,7,12.3,15.5,16.4,24.6s6.8,18.6,9.4,28.1c2.6,9.7,4.8,19.5,6.5,29.3
	c6.7,38.5,6.3,78.8-4.2,116.6c-10.3,36.8-30.7,70-59.4,95.3c-29.4,25.9-66.3,42.6-105.2,47.1c-20.9,2.5-42.2,1.6-62.9-2.7
	c-20.9-4.4-40.9-12.3-59.8-22.3c-34.1-18.1-67.9-42.4-81.4-80.1c-6.7-18.7-8.5-38.8-7.7-58.5s4-39.9,9-59.2s12.4-37.8,25.4-52.8
	S69.4,70,86.8,61.2c19.9-10.1,40.3-19.1,61-27.6c9.9-4,19.7-8.1,29.6-12c8.5-3.4,17.1-6.5,26-8.7c9.4-2.3,18.9-3.4,28.5-3.5
	C235.1,9.4,235.1,4.4,231.9,4.5L231.9,4.5L231.9,4.5z"/>
</svg>
