<?xml version="1.0" encoding="UTF-8"?>
<svg xmlns="http://www.w3.org/2000/svg" viewBox="0 0 298.12 331.41">
  <defs>
    <style>
      .cls-1 {
        fill: #000;
      }

      .cls-1, .cls-2, .cls-3 {
        stroke-width: 0px;
      }

      .cls-2 {
        fill: #231f20;
      }

      .cls-3 {
        fill: #e27976;
      }

      .cls-4 {
        fill: #fff;
        stroke: #fff;
        stroke-miterlimit: 10;
        stroke-width: .5px;
      }
    </style>
  </defs>
  <g id="Layer_1" data-name="Layer 1">
    <rect class="cls-4" x=".25" y=".25" width="149.94" height="174.97"/>
    <path class="cls-1" d="M298.06,331.41c.08,0,.08-.12,0-.12s-.08.12,0,.12h0Z"/>
  </g>
  <g id="Paw_drawing" data-name="Paw drawing">
    <g>
      <path class="cls-2" d="M93.11,135.41c-.59.25-1.03.7-1.26,1.3-.21.55-.21,1.3.14,1.81.15.22.52.2.78.2.31,0,.65-.17.88-.36.49-.42.7-1.11.82-1.71.07-.37-.19-.71-.43-.98-.19-.21-.64-.45-.93-.27"/>
      <path class="cls-1" d="M93.08,135.36c-.62.27-1.11.78-1.32,1.43-.11.32-.14.67-.1,1.01.04.28.13.68.37.86.22.17.58.15.84.13.34-.04.67-.22.91-.46s.4-.54.52-.85c.07-.17.12-.35.16-.52.04-.16.09-.34.07-.51-.06-.57-.84-1.44-1.46-1.09-.07.04,0,.15.06.11.54-.3,1.26.55,1.28,1.03.01.27-.1.59-.2.85-.1.29-.24.57-.44.8s-.5.43-.81.49c-.23.05-.61.07-.82-.06-.25-.15-.33-.6-.36-.86-.03-.29,0-.59.09-.87.2-.63.67-1.12,1.27-1.38.07-.03,0-.14-.06-.11h0Z"/>
    </g>
    <g>
      <path class="cls-2" d="M90.78,132.96c-1.41,0-1.62,2.07-1.1,2.98.35.62,1.22.64,1.66.1.21-.26.45-.53.52-.87.06-.28.09-.61.07-.9-.04-.68-.56-1.32-1.28-1.32"/>
      <path class="cls-1" d="M90.78,132.9c-1.28.02-1.59,1.59-1.34,2.59.07.26.18.54.38.73.23.21.55.31.86.26.39-.05.64-.3.87-.6.13-.16.25-.33.32-.52.08-.21.11-.46.13-.69.03-.45-.04-.89-.31-1.25-.25-.33-.62-.52-1.03-.53-.08,0-.08.12,0,.12.76.02,1.22.71,1.23,1.42,0,.43-.06.85-.31,1.21-.2.29-.43.59-.78.69-.3.08-.63.02-.87-.19-.19-.17-.29-.41-.35-.66-.13-.48-.12-1.01.03-1.48.17-.55.58-.97,1.18-.98.08,0,.08-.13,0-.12h0Z"/>
    </g>
    <g>
      <path class="cls-2" d="M87.12,132.95c-.22.04-.58.38-.7.56-.18.26-.27.55-.28.86s-.04.67.05.96c.1.33.33.65.58.88.23.21.55.3.86.24s.61-.4.77-.64c.32-.48.33-1.23.13-1.77-.11-.3-.35-.64-.61-.84-.24-.17-.6-.41-.91-.26"/>
      <path class="cls-1" d="M87.1,132.89c-.26.07-.5.3-.67.5-.21.25-.32.57-.35.89-.04.38-.05.81.09,1.17.12.32.35.63.62.85.25.2.61.29.92.2s.53-.35.71-.59c.38-.51.41-1.25.21-1.84-.12-.36-.36-.69-.66-.92-.28-.21-.63-.41-.97-.26-.07.03-.01.14.06.11.31-.13.65.1.88.29s.42.45.53.73c.21.5.22,1.15-.04,1.63-.13.25-.34.49-.57.64-.28.17-.65.13-.92-.04s-.48-.46-.61-.74c-.14-.31-.15-.64-.14-.97.01-.37.07-.73.3-1.03.15-.2.39-.44.65-.51.08-.02.04-.14-.03-.12h0Z"/>
    </g>
    <g>
      <path class="cls-2" d="M84.19,135.49c-1.05.84-.35,2.73.71,3.26.68.34,1.21-.29,1.35-.87.08-.32.13-.58.01-.9-.11-.3-.17-.65-.38-.9-.34-.42-1.27-1.09-1.78-.55"/>
      <path class="cls-1" d="M84.15,135.44c-1.02.84-.45,2.53.48,3.21.26.19.58.32.9.21s.55-.38.68-.67c.17-.35.25-.79.14-1.17s-.21-.77-.48-1.06c-.4-.44-1.26-1.02-1.8-.48-.06.06.03.15.09.09.46-.46,1.19.05,1.55.4.25.25.35.55.45.88.06.19.12.37.11.58,0,.19-.05.38-.11.56-.1.3-.3.6-.6.74s-.62.01-.87-.17c-.44-.32-.74-.83-.88-1.34-.16-.6-.07-1.26.43-1.67.06-.05-.03-.14-.09-.09h0Z"/>
    </g>
    <g>
      <path class="cls-2" d="M88.68,136.71c-.22,0-.6.26-.78.38-.26.17-.49.42-.66.67-.36.54-.63,1.13-1.06,1.62-.23.26-.47.5-.67.79-.17.24-.22.62-.22.91,0,.35.06.68.38.9.26.18.59.24.91.26.37.02.69-.08,1.03-.18.37-.11.73-.19,1.12-.22.36-.03.73-.02,1.07.11s.68.21,1.02.33c.63.23,1.41.12,1.75-.5.17-.3.17-.7.14-1.04-.04-.39-.16-.62-.46-.88-.17-.14-.3-.31-.46-.46-.17-.16-.38-.3-.51-.5-.11-.17-.17-.35-.28-.52-.09-.14-.17-.28-.24-.43-.29-.63-.96-1.2-1.69-1.27-.14-.01-.29,0-.43,0"/>
      <path class="cls-1" d="M88.68,136.65c-.54.05-1.13.58-1.43.99-.25.35-.44.73-.67,1.09-.26.4-.57.74-.88,1.1-.41.48-.64,1.14-.41,1.78s1.03.75,1.61.69c.89-.1,1.72-.56,2.64-.34.69.16,1.38.6,2.12.5.58-.08,1.01-.5,1.1-1.09.09-.64-.06-1.14-.53-1.58-.36-.33-.8-.68-1.03-1.11-.21-.38-.39-.81-.65-1.16-.48-.64-1.15-.9-1.93-.89-.08,0-.08.13,0,.12.75-.01,1.4.25,1.85.87.34.47.49,1.09.9,1.51s1.1.82,1.24,1.43c.16.72-.05,1.54-.83,1.73-.62.15-1.33-.17-1.9-.37-.54-.19-1.11-.18-1.67-.07-.74.14-1.44.49-2.2.23-.88-.31-.79-1.46-.29-2.07.22-.27.47-.52.69-.8.24-.31.43-.65.63-.98s.4-.66.69-.92c.24-.21.64-.52.97-.54.08,0,.08-.13,0-.12h0Z"/>
    </g>
    <path class="cls-1" d="M107.99,127.18c.08,0,.08-.12,0-.12s-.08.12,0,.12h0Z"/>
  </g>
  <g id="Blush">
    <path class="cls-3" d="M77.08,74.92c-1.61.26-3.21.94-4.6,1.77-1.48.89-2.84,2.08-3.3,3.8-.37,1.38-.16,2.99,1.2,3.74,1.14.63,2.52.51,3.75.3,2.43-.41,4.85-1.51,6.57-3.31,1.03-1.08,1.83-2.59,1.11-4.05-.33-.67-.97-1.18-1.64-1.49-.79-.37-1.66-.68-2.54-.61-1.79.15-3.47,1.21-4.7,2.47s-2.26,3.01-1.79,4.81c.16.59.65.85,1.21.92,1.22.16,2.56-.08,3.72-.47,1.34-.45,2.57-1.15,3.29-2.4.54-.94,1.14-2.57-.17-3.22-.95-.47-2,.02-2.85.49s-1.69,1.03-2.38,1.71c-.47.46-.49,1.31,0,1.77s1.27.49,1.77,0c.09-.08.18-.17.27-.24.06-.05.12-.1.18-.14.2-.17-.24.17.02-.01.29-.21.58-.42.89-.61s.61-.37.93-.52c.16-.07.28-.04-.02,0,.06,0,.13-.05.18-.07.16-.05.61-.1.1-.06.04,0,.09,0,.13,0-.16,0-.29-.02-.46-.13.12.07-.21-.17-.19-.15-.26-.26-.2-.28-.15-.19.02.03-.14-.36-.1-.21,0,0-.04-.4-.03-.2s.09-.28.01-.12c-.03.07-.05.16-.07.23-.04.16-.05-.07.04-.1-.01,0-.07.16-.07.15-.06.11-.12.23-.18.34-.07.12-.14.23-.21.35-.1.18.16-.16-.03.04-.08.08-.16.16-.25.24-.03.03-.07.06-.1.09.24-.21,0-.02-.04.02-.19.12-.38.23-.59.33-.07.04-.42.17-.16.08-.14.05-.29.11-.44.16-.28.09-.56.17-.85.24-.15.03-.3.06-.45.09-.07.01-.13.02-.2.03-.16.03.23-.02-.01,0-.51.05-1.03.08-1.54.01l1.21.92s-.07-.19-.05-.21c.03-.04,0,.32.02.12,0-.12,0-.25,0-.37,0-.26-.08.28,0,.03.02-.05.02-.1.03-.15,0-.03.11-.45.15-.45,0,0-.13.26,0,.03.03-.06.06-.13.1-.19.07-.13.14-.25.22-.37.05-.07.33-.45.12-.19.12-.15.24-.29.36-.42.2-.22.42-.43.65-.63.06-.05.12-.1.18-.15,0,0,.25-.2.1-.08s.09-.07.1-.07c.08-.06.15-.11.23-.16.26-.17.52-.33.79-.47.08-.04.51-.22.18-.09.16-.06.31-.12.47-.17.13-.04.26-.07.38-.1.35-.08-.23,0,.11-.02.12,0,.23,0,.35,0,.21-.01-.13,0-.13-.02,0,0,.32.07.32.07.2.05.39.12.58.19.05.02.23.1,0,0,.08.03.15.07.23.11.13.07.26.18.39.23.15.06-.2-.2-.03-.03.05.05.1.11.16.15.19.14-.12-.24-.03-.04.02.03.05.08.07.11.18.27-.09-.25,0,.04s0-.3,0,.02c0,.23-.08.02.02-.09-.03.03-.03.14-.04.18-.01.05-.03.1-.05.15-.07.23.04-.09.04-.09.02.03-.15.28-.16.31-.06.11-.14.2-.2.3-.11.18.05-.06.06-.07-.04.09-.14.17-.2.24-.17.19-.36.38-.55.55-.11.09-.21.19-.32.28-.06.05-.11.09-.17.13.26-.2.04-.03-.02.01-.46.34-.96.64-1.47.9-.11.06-.22.1-.33.16-.19.09.1-.04.11-.04-.04.03-.1.04-.14.06-.2.08-.4.15-.6.22-.43.15-.87.28-1.32.38-.24.06-.47.11-.71.15-.11.02-.25.06-.36.06.34.02.17-.02.05,0-.07,0-.14.01-.21.02-.23.02-.46.03-.68.02-.11,0-.22-.02-.32-.02-.19,0,.13.01.15.02-.05-.03-.18-.03-.24-.04-.08-.02-.17-.05-.25-.07-.23-.05.28.17,0,0-.05-.03-.32-.21-.11-.06.26.19-.11-.11-.09-.12.06-.02.2.3.08.08,0-.01-.05-.09-.05-.09.07-.03.1.35.05.09,0-.04-.02-.08-.03-.11-.09-.29-.01.28,0-.04,0-.08-.04-.37.02-.43-.03.03-.05.27,0,.09.03-.12.05-.23.08-.35.02-.06.03-.12.05-.18.02-.06.04-.13.06-.19.04-.1.04-.1,0,0l-.03.07c.02-.05.05-.1.07-.15.04-.08.08-.15.13-.22s.1-.15.15-.22c.16-.25-.18.19.03-.03.26-.29.54-.55.84-.8.04-.03.19-.13-.01,0,.1-.07.2-.14.3-.21.16-.11.32-.22.49-.32.37-.23.75-.43,1.14-.62.18-.09.36-.16.54-.24.19-.09-.27.11.04-.02.1-.04.19-.08.29-.11.68-.26,1.38-.47,2.09-.59.65-.11,1.07-.94.87-1.54-.23-.7-.84-.99-1.54-.87h0Z"/>
    <path class="cls-3" d="M36.75,84.23c.07-.08.15-.16.22-.24.03-.03.3-.26.19-.18s.12-.08.16-.11c.11-.07.24-.11.34-.19s-.06.02-.08.03c.04-.01.09-.03.13-.05.1-.03.21-.06.31-.09.15-.03.24-.03.02-.02.1,0,.21-.02.31-.02.02,0,.29-.02.31.01,0,.01-.26-.05-.12-.02.04.01.09.02.13.02.1.02.2.05.29.08.27.08-.12-.08.06.02.08.04.15.08.23.12.03.02.31.2.16.1-.14-.1.07.07.11.1.05.05.28.29.17.17s.06.09.09.13c.06.09.11.19.16.28.11.2-.05-.17.02.05.03.11.07.22.09.33s.05.23.07.34.04.29.01.07c.03.24.05.48.06.72,0,.23,0,.46,0,.69,0,.11-.01.21-.02.32,0,.05,0,.11-.01.16,0,.03-.04.33-.02.15.02-.15-.03.15-.04.2-.02.1-.04.21-.06.31-.05.24-.12.47-.2.7-.02.05-.04.1-.05.15-.11.31.07-.13-.01.03-.05.11-.1.22-.16.32-.06.12-.13.23-.2.35-.03.05-.22.31-.13.2s-.15.17-.19.21c-.08.08-.17.16-.25.24-.02.02-.14.13-.03.03.13-.11-.11.07-.12.08-.11.07-.23.14-.35.2l1.84.75c.03.17.02-.04.02-.11,0-.11,0-.21-.01-.31-.07-.65-.52-1.28-1.25-1.25-.62.03-1.33.55-1.25,1.25.04.37.02.72.08,1.09.14.83,1.19,1.09,1.84.75,2.26-1.2,3.13-3.92,3.08-6.34-.02-1.16-.19-2.44-.89-3.4-.76-1.04-1.87-1.66-3.15-1.77-1.39-.12-2.78.54-3.69,1.57-.43.49-.52,1.29,0,1.77.48.44,1.3.52,1.77,0h0Z"/>
    <path class="cls-3" d="M35.95,84.71c.02.16.04.32.07.48.04.33-.04-.28,0,.05,0,.06.02.13.03.19.04.33.09.67.13,1,.08.65.16,1.3.25,1.95.04.34.11.63.37.88.22.22.57.38.88.37.68-.03,1.25-.55,1.25-1.25,0-.76,0-1.52,0-2.28h-2.5c.1.79,0,1.59-.04,2.38l1.88-1.08c-.19-.13.2.19.05.04-.04-.04-.09-.09-.13-.13-.11-.12-.05-.16.04.06-.02-.05-.07-.11-.1-.16-.03-.06-.06-.11-.09-.17-.12-.21.1.29.02.06-.04-.12-.09-.25-.12-.38-.07-.25-.13-.52-.15-.78l.03.2s-.01-.09-.02-.13c0-.05-.01-.11-.02-.16-.01-.13-.03-.26-.04-.39l-2.13.88c.12.11.23.22.33.34.2.23-.13-.2,0,0,.04.06.08.12.12.18.08.12.15.25.21.39.11.23-.09-.25,0-.03.03.08.06.16.08.24.05.15.09.31.12.47v.07c.03.13.03.1,0-.11-.01.06.01.16.02.22,0,.15,0,.3,0,.44,0,.05,0,.1-.01.15l.03-.19c-.03.08-.04.2-.06.29l2.28-.3c-.05-.08-.09-.16-.13-.24-.05-.1-.09-.29.04.11-.01-.04-.04-.09-.05-.13-.07-.19-.13-.38-.17-.57-.03-.11-.05-.22-.07-.33s-.03-.35,0,.1c0-.05-.01-.11-.02-.16-.02-.22-.03-.44-.02-.66,0-.13.09-.53,0-.05.02-.1.03-.2.06-.29s.06-.18.09-.27c.06-.19-.15.29-.05.13.03-.05.05-.09.07-.14.02-.04.05-.07.07-.11.05-.08-.25.27-.07.1.03-.03.06-.06.09-.09.12-.13-.27.17-.12.09.04-.02.08-.05.11-.07.21-.13-.13.08-.13.05,0,0,.12-.04.13-.04.11-.03.37-.06-.09,0l-1.21-.92c.26.65.55,1.29.73,1.96.04.16.08.32.12.49,0,.04.01.08.02.12.02.1.01.05-.02-.13-.02.03.02.19.02.24,0,.08,0,.16,0,.24,0,.04-.04.2-.01.24.03-.2.03-.23.01-.1,0,.04-.02.08-.02.12-.02.09-.05.18-.08.26l2.09-.55c-.07-.06-.13-.13-.19-.2-.14-.13.18.27.08.1-.03-.04-.06-.08-.08-.12-.05-.09-.1-.17-.15-.27-.02-.05-.09-.21,0,0,.09.23.01.03,0-.02-.07-.2-.13-.4-.16-.6-.01-.05-.02-.11-.03-.16.08.41.03.22.02.11,0-.11-.02-.22-.02-.33s0-.22.01-.33c0-.06.03-.23,0,0s0,.04,0-.02c.02-.09.04-.19.07-.28.01-.05.03-.1.05-.15.06-.2-.14.29-.05.11.04-.09.09-.17.14-.26.07-.13.14-.08-.08.1.03-.03.07-.08.1-.11.03-.03.07-.07.1-.1.13-.13-.28.18-.1.08.11-.06.43-.21,0-.03l-1.41-.57c.08.14.15.27.21.41.03.06.05.13.09.19-.19-.33-.03-.07,0,.03.11.29.18.59.25.89.06.25-.02-.31,0-.06,0,.08.01.16.02.24s0,.15,0,.23c0,.14-.08.23.02-.08-.02.07-.03.14-.05.21,0,.03-.02.06-.03.09-.04.12-.02.08.06-.13-.03.04-.06.11-.09.16-.09.18.22-.24,0-.01l1.96.25c-.03-.06-.06-.13-.1-.19.02.04.1.26.05.1-.04-.13-.08-.25-.1-.38-.01-.06-.01-.13-.03-.18.09.28.02.19.02.07-.01-.14-.01-.28-.01-.42,0-.13,0-.26.02-.39,0-.05.04-.28,0-.07s0-.02.01-.07c.05-.28.12-.55.2-.83l-2.09.55s.17.2.03.03c-.14-.17-.02-.01.01.03.04.06.15.2.15.27,0-.04-.11-.31-.05-.1.01.05.03.1.05.14.02.07.08.22.06.29,0,0-.03-.33-.02-.15,0,.05,0,.1,0,.15,0,.1,0,.2-.01.3,0,.15.06-.33.02-.12-.01.05-.02.1-.03.15-.02.1-.05.2-.08.29-.01.04-.03.12-.05.14.01-.01.13-.28.05-.13-.05.09-.09.19-.14.28s-.11.18-.17.26c-.11.17.16-.19.06-.08-.04.04-.07.08-.1.12-.07.08-.14.15-.22.22-.03.03-.06.06-.09.08-.1.09-.21.1.06-.04-.19.1-.35.23-.54.32-.59.28-.79,1.18-.45,1.71.4.61,1.07.74,1.71.45,1.11-.52,1.95-1.57,2.31-2.73.41-1.29.09-2.64-.78-3.65-.64-.74-1.84-.29-2.09.55-.41,1.38-.52,2.98.2,4.28.38.69,1.42.83,1.96.25,1.36-1.45.77-3.65-.1-5.2-.24-.43-.92-.78-1.41-.57-.69.28-1.26.71-1.62,1.39-.31.59-.45,1.23-.47,1.89-.03,1.18.37,2.55,1.27,3.36.72.65,1.78.36,2.09-.55.56-1.62-.17-3.28-.77-4.77-.11-.26-.22-.47-.45-.65-.2-.15-.5-.3-.76-.27-.44.06-.82.13-1.21.36-.35.2-.6.48-.84.79-.39.53-.53,1.2-.6,1.85-.11,1.11.15,2.4.73,3.36.26.43.75.66,1.25.6.47-.06.93-.41,1.04-.9.4-1.74-.12-3.69-1.47-4.9-.38-.34-.88-.46-1.37-.26-.42.18-.82.66-.77,1.14.16,1.55.37,3.16,1.77,4.09.37.24.89.22,1.26,0,.39-.23.6-.63.62-1.08.04-.79.14-1.59.04-2.38-.04-.34-.11-.63-.37-.88-.22-.22-.57-.38-.88-.37-.68.03-1.25.55-1.25,1.25,0,.76,0,1.52,0,2.28h2.5c-.19-1.45-.36-2.89-.56-4.34-.04-.29-.34-.61-.57-.75-.27-.16-.66-.22-.96-.13s-.59.29-.75.57c-.17.32-.18.61-.13.96h0Z"/>
    <path class="cls-3" d="M39.49,83.23c-.05-.1-.15-.21-.22-.29-.15-.15-.27-.21-.45-.29-.22-.09-.39-.12-.64-.14-.29-.02-.58.04-.86.09-.54.1-1.08.3-1.57.56-.33.18-.64.42-.84.75-.17.27-.21.66-.13.96.08.29.3.6.57.75.29.15.64.23.96.13s.57-.29.75-.57c0-.01.01-.02.02-.03l-.2.25s.07-.08.12-.11l-.25.2c.15-.12.33-.2.51-.28l-.3.13c.39-.16.8-.29,1.22-.34l-.33.04c.12-.02.25-.03.37-.01l-.33-.04s.08.01.11.03l-.3-.13s.03.02.04.03l-.25-.2s.01.01.02.02l-.2-.25s0,.01.01.02c.13.27.46.5.75.57.3.08.7.05.96-.13s.5-.43.57-.75c.08-.34.03-.65-.13-.96h0Z"/>
    <path class="cls-3" d="M79.36,79.52c.04-.05.08-.1.13-.14l-.25.2c.05-.04.1-.07.16-.09l-.3.13c.08-.03.16-.05.24-.07l-.33.04c.13-.02.26-.01.39,0l-.33-.04c.15.02.29.06.44.1v-2.41c-.43.15-.87.25-1.3.41-.62.22-1.2.51-1.68.98-.23.22-.37.57-.37.88s.14.67.37.88.55.38.88.37.64-.13.88-.37c.07-.07.14-.13.22-.19l-.25.2c.19-.15.41-.26.63-.36l-.3.13c.51-.21,1.05-.33,1.57-.51.26-.09.48-.22.65-.45.16-.21.28-.48.27-.76,0-.22-.07-.43-.17-.63-.15-.29-.45-.47-.75-.57-.13-.04-.25-.08-.39-.1-.23-.04-.47-.08-.71-.06-.54.05-1.13.22-1.48.67-.12.11-.21.25-.26.4-.08.15-.11.31-.11.48,0,.31.14.67.37.88s.55.38.88.37c.31-.01.69-.11.88-.37h0Z"/>
  </g>
  <g id="Actual_sketch" data-name="Actual sketch">
    <path class="cls-2" d="M54.63,4.46c-2.26.62-4.68.24-6.98.65-2.61.47-4.49,2.64-6.56,4.14-4.92,3.57-9.73,7.51-13.55,12.26-3.5,4.35-6.67,9.26-8.69,14.49s-2.42,11.06-1.05,16.67c1.45,5.9,4.02,11.45,8.92,15.23,1.27.98,2.52-1.19,1.26-2.16-4.07-3.15-6.24-7.95-7.53-12.81-1.36-5.12-1.34-10.15.4-15.17s4.73-9.55,7.88-13.75c3.34-4.45,7.73-8.27,12.18-11.57,1.28-.95,2.58-1.86,3.83-2.83,1.07-.83,1.89-1.75,3.25-2.04,2.4-.51,4.91-.05,7.29-.71,1.55-.42.89-2.84-.66-2.41h0Z"/>
    <path class="cls-2" d="M27.94,68.55c8.26-2.91,13.96-10.06,19.78-16.24,1.48-1.57,2.41-3.52,3.61-5.29.55-.81,1.25-1.48,1.75-2.32.36-.61.72-1.23,1.06-1.86,1.47-2.71,2.81-5.69,2.92-8.82.14-3.95-2.25-6.92-5.73-8.53-.45-.21-1.16-.26-1.51.2-3.83,4.96-3.92,12.43-.12,17.46,1.09,1.44,2.49,2.65,3.72,3.96,1.3,1.39,2.56,2.81,3.81,4.25,2.3,2.64,4.55,5.33,7.08,7.76,2.91,2.81,6.17,5.18,9.8,6.98,1.44.71,2.7-1.44,1.26-2.16-5.82-2.89-10.25-7.31-14.47-12.16-2.26-2.6-4.49-5.22-6.89-7.68-1.06-1.09-2.17-2.08-2.94-3.4-.7-1.2-1.16-2.52-1.43-3.88-.63-3.19-.05-6.76,1.96-9.36l-1.51.2c2.72,1.25,4.6,3.25,4.49,6.37-.1,2.71-1.36,5.34-2.64,7.67-.71,1.3-1.55,2.38-2.42,3.58-1.16,1.61-1.97,3.49-3.29,4.99-2.59,2.95-5.4,5.83-8.19,8.59-3.12,3.08-6.58,5.82-10.75,7.29-1.51.53-.86,2.95.66,2.41h0Z"/>
    <path class="cls-2" d="M50.06,7.18c5.13.2,10.15-1.07,15.11-2.18,5.79-1.29,11.6-2.26,17.55-1.91,2.31.14,4.64.24,6.66,1.44,1.75,1.04,3.3,2.41,4.82,3.75,3.8,3.35,7.55,6.88,12.03,9.31,1.1.6,2.23,1.12,3.4,1.56,1.06.4,2.26.58,3.24,1.17,1.5.9,2.11,2.56,2.43,4.2.88,4.49.04,9.18.46,13.71.23,2.49.77,4.66,2.1,6.8,1.57,2.53,3.61,4.71,5.57,6.94,2.12,2.42,3.75,5.04,5.4,7.79.73,1.22,1.37,2.48,1.66,3.88.35,1.72.31,3.62.38,5.37.33,8.3-.44,16.58-.9,24.85-.11,2.09-.21,4.19-.26,6.28-.05,1.94-.15,3.9.17,5.83.56,3.37,2.26,6.54,4.61,9,1.11,1.17,2.88-.6,1.77-1.77-2.25-2.35-3.84-5.52-4.07-8.8-.25-3.64.1-7.39.3-11.02.42-7.47,1.08-14.94.93-22.43-.06-3.15.12-6.73-1.05-9.71-.61-1.56-1.55-2.87-2.38-4.3s-1.62-2.8-2.62-4.11c-1.79-2.34-3.89-4.41-5.71-6.73s-3-4.45-3.35-7.31c-.54-4.52.17-9.09-.4-13.6-.25-1.98-.75-3.97-2.04-5.54-1.39-1.7-3.3-2.1-5.26-2.81-5-1.8-9.12-5.43-13.03-8.91-2.82-2.51-6.03-6.01-9.9-6.8-6.69-1.37-13.81-.52-20.42.84-5.68,1.17-11.36,2.92-17.21,2.69-1.61-.06-1.61,2.44,0,2.5h0Z"/>
    <path class="cls-2" d="M133.56,114.42c4.37,4.68,11.12,9.87,10.23,17.06-.49,4.01-2.32,7.98-.94,12.03.54,1.6,1.54,2.95,2.52,4.29s2.12,2.76,2.27,4.44c.14,1.59,2.64,1.6,2.5,0-.34-3.78-3.55-5.9-4.82-9.24-1.58-4.13.98-8.48,1.05-12.65.13-7.49-6.4-12.72-11.04-17.7-1.1-1.18-2.87.59-1.77,1.77h0Z"/>
    <path class="cls-2" d="M23.88,70.08c-.61.55-.65,1.5-.71,2.25-.09,1.14-.06,2.28-.12,3.42-.15,2.91-2.13,5.12-3.82,7.35-3.87,5.12-6.11,10.94-5.32,17.42s4.85,13.01.7,18.75c-3,4.14-7.92,6.55-9.82,11.53-1.42,3.72-.32,7.59-.36,11.43-.05,4.06-1.89,7.66-3.71,11.19-.74,1.43,1.42,2.69,2.16,1.26,1.55-3.01,3.17-6.09,3.76-9.46.64-3.67-.35-7.23-.08-10.89.41-5.52,5.44-8.33,8.8-12.05,1.98-2.2,3.33-4.71,3.58-7.7.27-3.25-.73-6.49-1.56-9.6s-1.44-6.37-1.02-9.65c.38-2.98,1.59-5.76,3.17-8.3,1.83-2.94,4.74-5.56,5.72-8.96.32-1.12.31-2.37.34-3.52.02-.66.02-1.32.06-1.99.01-.23.01-.47.06-.69.05-.27.1-.18-.06-.04,1.2-1.08-.57-2.84-1.77-1.77h0Z"/>
    <path class="cls-2" d="M31.52,68.12c0,8.3-.57,17.89,4.85,24.82,2.76,3.53,6.37,7.1,10.3,9.3,2.12,1.19,4.35,1.79,6.77,1.97,1.24.09,2.49.09,3.71.29.47.07,1.14.1,1.43.52.44.63.34,2.13.37,2.83.06,1.59-.06,3.18-.09,4.77-.05,2.68-.26,5.5.02,8.16.17,1.58,2.67,1.6,2.5,0-.25-2.38,0-4.82-.03-7.21-.03-2.61.26-5.2-.08-7.81-.17-1.35-.56-2.6-1.87-3.23-1.91-.92-4.36-.67-6.41-.86-5.03-.46-8.87-4.08-12.2-7.56-1.51-1.58-2.96-3.14-3.99-5.09s-1.63-4.05-2.05-6.19c-.93-4.84-.74-9.82-.73-14.72,0-1.61-2.5-1.61-2.5,0h0Z"/>
    <path class="cls-2" d="M90.67,66.7c3.09-.4,6.06,1.04,6.49,4.37.5,3.88-2.24,7.3-4.66,10-2.6,2.89-5.15,5.73-7.02,9.16s-2.98,6.82-3.67,10.47c-.81,4.29-1,8.66-1,13.02h2.5v-.7c0-1.61-2.5-1.61-2.5,0v.7c0,1.61,2.5,1.61,2.5,0,0-8.22.78-16.55,5.19-23.7,2.22-3.61,5.36-6.4,7.92-9.75,2.29-3,4.07-6.94,2.96-10.76s-4.88-5.81-8.7-5.31c-1.57.2-1.59,2.71,0,2.5h0Z"/>
    <path class="cls-2" d="M47.56,119.83c5.23,3.88,12.57,6.23,19.07,5.03s10.08-7.28,16.13-9.01c6.51-1.85,10.7,4.8,13.61,9.51,4.58,7.41,9.33,14.76,13.26,22.54,2.14,4.24,3.85,8.63,5.39,13.11s4.16,8.32,4.74,12.91c.2,1.58,2.7,1.6,2.5,0-.52-4.13-2.46-7.73-4.04-11.51s-2.83-7.94-4.55-11.81c-3.65-8.19-8.51-15.8-13.23-23.41-3.17-5.11-6.65-12.24-12.99-13.9-6.71-1.75-11.71,4.11-16.84,7.27-6.74,4.15-15.83,1.54-21.81-2.9-1.29-.96-2.54,1.21-1.26,2.16h0Z"/>
    <path class="cls-2" d="M59.24,62.85c-.97,1.21-1.55,2.94-1.01,4.47s1.87,2.22,3.47,2.31c.13,0,.26.01.4.02.05,0,.36.05.19.02.13.02.26.05.38.1-.16-.07.28.19.15.09-.09-.07.15.15.2.19.06.06.2.25.08.08.06.09.12.18.18.27.03.06.17.34.13.24-.05-.11.05.16.07.21.03.11.06.21.08.32.01.05.06.35.04.22-.01-.12.01.21.01.28,0,.13,0,.26,0,.39,0,.05,0,.11-.01.17,0-.02.03-.21,0-.06-.04.23-.1.46-.17.68-.06.19.07-.1-.06.14-.06.11-.12.21-.18.31-.1.16.11-.08-.09.11-.09.08-.16.17-.26.24.2-.16-.09.04-.17.08-.02.01-.18.07-.04.02s-.07.02-.1.02c-.09.02-.39.06-.15.04-.16.01-.32,0-.47,0l1.21.92c-.39-1.42-.3-3.02.48-4.29l-2.28-.3c.29,1.25.16,2.56.13,3.83s1.73,1.72,2.33.63.9-2.3.96-3.56h-2.5c0,.49.02.98,0,1.47-.07,1.61,2.43,1.6,2.5,0,.02-.49,0-.98,0-1.47-.01-1.62-2.42-1.6-2.5,0-.04.81-.23,1.58-.62,2.3l2.33.63c.03-1.51.12-3.01-.22-4.49-.25-1.08-1.74-1.18-2.28-.3-1.12,1.83-1.29,4.18-.74,6.22.15.56.65.88,1.21.92,2.58.16,4.23-2.19,4.2-4.59-.02-1.2-.41-2.36-1.18-3.28-.95-1.12-2.19-1.22-3.55-1.34-.15-.01-.02,0,.01,0-.11-.02-.21-.04-.31-.07-.13-.04-.03,0,0,.02-.08-.03-.16-.08-.23-.13-.07-.06-.24-.37-.28-.58-.1-.53.12-1.33.45-1.74.42-.53.52-1.25,0-1.77-.44-.44-1.34-.53-1.77,0h0Z"/>
    <path class="cls-2" d="M39.04,64.69c-.56,1.86-.92,3.92.16,5.68.35.58.81,1.08,1.32,1.53.19.17.38.33.56.5.08.08.16.16.23.24.19.19,0-.05.13.18s.03-.02.09.18c.01.04.09.33.06.19.03.18.02.38.02.56,0,.15-.09.67,0,.27-.04.2-.08.4-.14.6-.04.13-.08.25-.12.38-.02.06-.04.11-.06.17-.08.2.13-.25-.04.09-.05.11-.11.21-.17.32-.03.05-.06.1-.09.15-.1.17.12-.12,0,.02-.06.07-.17.24-.14.16,0-.02.02,0,.07-.01.17-.03,0-.02-.03-.01.05,0,.13,0,.17.03.05.04-.07-.05-.08-.05.07-.03.05.2.06.06,0-.09,0,.03.04.08-.05-.08.02-.2,0,.03,0-.07,0-.14,0-.22,0-.01.02-.2,0-.06-.02.15.05-.19.04-.19.04-.15.08-.29.13-.43.07-.22.03-.11.13-.32.07-.14.14-.28.21-.42.16-.29.33-.57.52-.84.03-.04.06-.09.09-.13.11-.15-.13.15-.02.02.07-.09.14-.17.22-.25l-2.09-1.22c-.17.84-.32,1.68-.48,2.52-.12.66.18,1.35.87,1.54.61.17,1.42-.21,1.54-.87.15-.84.31-1.68.48-2.52.23-1.19-1.15-2.14-2.09-1.22s-1.74,2.41-1.98,3.71c-.16.84-.1,1.75.5,2.41s1.54.98,2.4.74c1.43-.41,2.18-2.11,2.45-3.44.34-1.7-.04-3.25-1.35-4.41-.59-.52-1.16-.96-1.46-1.65-.47-1.08-.05-2.38.27-3.44.47-1.54-1.94-2.2-2.41-.66h0Z"/>
    <path class="cls-2" d="M52.07,75.23c-.83,1.4-1.92,2.86-2.18,4.5-.13.87-.03,1.75.48,2.49.65.93,1.65,1.44,2.7,1.81.62.22,1.4-.25,1.54-.87.16-.7-.21-1.3-.87-1.54-.11-.04-.22-.08-.32-.12.25.1-.09-.04-.14-.07-.18-.09-.36-.19-.52-.3l-.07-.05c-.11-.08-.09-.07.06.05,0,0-.16-.15-.17-.15-.03-.03-.11-.14-.15-.16.14.07.14.21.03.03-.03-.06-.06-.12-.1-.17-.13-.18.08.27.03.06-.01-.06-.03-.12-.05-.18,0-.04-.02-.08-.02-.12.03.22.03.28.02.18,0-.14,0-.28,0-.42,0-.22-.07.3,0,.07.02-.07.03-.14.04-.2.03-.14.08-.28.12-.42.02-.07.05-.14.08-.21.11-.27.04,0,0,0,.04,0,.2-.43.23-.48.08-.17.17-.33.26-.49.37-.67.78-1.31,1.17-1.97.33-.56.15-1.4-.45-1.71s-1.35-.15-1.71.45h0Z"/>
    <path class="cls-2" d="M51.27,91.78c2.71.73,5.77,1.38,8.53.5,2.16-.7,3.46-2.44,5.07-3.91,1.19-1.09-.58-2.86-1.77-1.77-1.26,1.15-2.31,2.74-3.97,3.27-2.33.75-4.92.12-7.2-.5-1.56-.42-2.22,1.99-.66,2.41h0Z"/>
    <path class="cls-2" d="M82.1,51.35c.03,3.55,1.03,6.94,2.94,9.93s4.33,5.41,6.69,7.92l.55-2.09c-.6.2-.82.2-1.41.22-.69.03-1.37,0-2.06-.05-1.74-.12-3.46-.4-5.17-.74s-3.41-.75-5.07-1.27c-1.17-.36-2.23-.67-3.21-1.33-1.34-.9-2.59,1.26-1.26,2.16,1.1.74,2.46,1.16,3.72,1.56,1.76.55,3.56.98,5.38,1.34s3.73.66,5.62.79c1.34.09,2.84.17,4.13-.27.9-.3,1.22-1.38.55-2.09-2.16-2.3-4.43-4.55-6.17-7.2s-2.71-5.66-2.74-8.89c-.01-1.61-2.51-1.61-2.5,0h0Z"/>
    <path class="cls-2" d="M43.75,122.01c-2.65,1.62-4.25,4.74-5.89,7.28-.96,1.48-2.06,2.86-3,4.35-1.12,1.77-2.09,3.64-3.05,5.5-1.91,3.7-3.83,7.32-5.15,11.28s-2.15,8-2.84,12.08c-.27,1.57,2.14,2.25,2.41.66.67-3.94,1.47-7.86,2.71-11.66s3.02-7.19,4.83-10.7c.89-1.73,1.78-3.47,2.79-5.14.89-1.47,1.94-2.82,2.9-4.24,1.59-2.37,3.04-5.71,5.56-7.25,1.37-.84.12-3-1.26-2.16h0Z"/>
  </g>
</svg>